<svg id="Katman_x0020_1" xmlns="http://www.w3.org/2000/svg" width="31.698" height="31.699" viewBox="0 0 31.698 31.699">
  <g id="_105553244432256" transform="translate(0 0)">
    <path id="Path_23" data-name="Path 23" d="M2064.9,1639.715l3.094,5.358c.341-.225.683-.394,1.028-.645s.645-.454.963-.708a20.436,20.436,0,0,0,1.771-1.634,16.123,16.123,0,0,0,2.14-2.875,10.89,10.89,0,0,0,.591-1.143c.162-.4.346-.777.5-1.176a15.145,15.145,0,0,0,.819-3.391c.05-.439.093-.86.119-1.273v-1.622a9.377,9.377,0,0,0-.149-1.109c-.225-1.154-1.158-.953-2.451-.953-.729,0-11.341-.064-11.781.044a1.066,1.066,0,0,0-.79.944c-.049,1.06,0,2.269,0,3.346,0,1.188-.136,1.926,1.486,1.919,2.27-.009,4.541,0,6.811,0l-.351.763a9.311,9.311,0,0,1-3.107,3.642c-.117.086-.2.147-.332.225-.217.134-.245.085-.359.289Z" transform="translate(-2044.219 -1615.479)" fill="#167ee5" fill-rule="evenodd"/>
    <path id="Path_24" data-name="Path 24" d="M262.8,7.94l5.386,3.074.663-.941a10.939,10.939,0,0,1,1.178-1.3c.17-.17.261-.217.434-.371a9.2,9.2,0,0,1,6.11-2.151L276.544,0A15.765,15.765,0,0,0,262.8,7.94Z" transform="translate(-260.695 0)" fill="#ff4b25" fill-rule="evenodd"/>
    <path id="Path_25" data-name="Path 25" d="M262.8,2587.488c.358.561.666,1.058,1.07,1.6l.6.761a2.885,2.885,0,0,0,.326.355,7.019,7.019,0,0,0,1.018,1.025c.139.117.207.219.346.335a15.961,15.961,0,0,0,10.383,3.857l.032-6.253a9.309,9.309,0,0,1-6.084-2.121l-.867-.8a9.187,9.187,0,0,1-1.249-1.6l-.191-.218-5.386,3.068Z" transform="translate(-260.695 -2563.719)" fill="#12b346" fill-rule="evenodd"/>
    <path id="Path_26" data-name="Path 26" d="M2.115,1007.06l5.386-3.068a10.044,10.044,0,0,1-.9-7.488,8.723,8.723,0,0,1,.409-1.139A7.273,7.273,0,0,0,7.5,994.3L2.115,991.23a16.2,16.2,0,0,0-1.5,3.5,16.671,16.671,0,0,0-.606,3.694v1.467a16.276,16.276,0,0,0,2.1,7.167Z" transform="translate(-0.01 -983.29)" fill="#fdd500" fill-rule="evenodd"/>
    <path id="Path_27" data-name="Path 27" d="M1978.747,6.253a8.8,8.8,0,0,1,3.4.6c2.578,1.008,2.989,2.431,4.051,1.55l3.061-3.068a1.084,1.084,0,0,0-.118-1.452l-2.381-1.705A15.229,15.229,0,0,0,1978.72,0l.027,6.253Z" transform="translate(-1962.871 0)" fill="#d93f21" fill-rule="evenodd"/>
    <path id="Path_28" data-name="Path 28" d="M1978.822,3026.919l-.032,6.253a14.958,14.958,0,0,0,4.409-.605,13.918,13.918,0,0,0,1.827-.65,11.65,11.65,0,0,0,1.688-.849l-3.094-5.358a3.806,3.806,0,0,0-1.016.441,9.023,9.023,0,0,1-1.137.411A8.6,8.6,0,0,1,1978.822,3026.919Z" transform="translate(-1962.94 -3001.474)" fill="#0f993e" fill-rule="evenodd"/>
  </g>
</svg>
