<svg xmlns="http://www.w3.org/2000/svg" width="432.758" height="219.104" viewBox="0 0 432.758 219.104">
  <g id="Group_110" data-name="Group 110" transform="translate(-200 -4543)">
    <text id="Paying_for_your_booking" data-name="Paying for your booking" transform="translate(369.758 4602.414)" font-size="18" font-family="Barlow-Bold, Barlow" font-weight="700"><tspan x="0" y="0">Paying for your booking</tspan></text>
    <text id="Lorem_Ipsum_kısaca_Lipsum_masaüstü_yayıncılık_ve_sektöründe_kullanılan_taklit_yazı." data-name="Lorem Ipsum, kısaca Lipsum, masaüstü yayıncılık ve sektöründe kullanılan taklit yazı." transform="translate(369.758 4622.414)" font-size="20" font-family="Barlow-Regular, Barlow" letter-spacing="0.1em"><tspan x="0" y="20">Lorem Ipsum, kısaca </tspan><tspan x="0" y="44">Lipsum, masaüstü </tspan><tspan x="0" y="68">yayıncılık ve sektöründe </tspan><tspan x="0" y="92">kullanılan taklit yazı.</tspan></text>
    <g id="_ÎÓÈ_1" data-name="—ÎÓÈ_1" transform="translate(200 4543)">
      <path id="Path_64" data-name="Path 64" d="M326.655,6.781H148.9a3.679,3.679,0,1,0,0,7.357H326.655a98.883,98.883,0,1,1,0,197.765H64.732c-25.309,0-45.616-6.474-56.652-12.507l7.946-28.988c8.387,3.826,26.487,11.036,45.174,11.036,25.015,0,41.2-12.213,41.2-31.2,0-22.808-22.661-32.961-45.027-32.961H41.482V90.213H56.491c18.541-.294,40.171-7.8,40.171-27.369,0-12.213-8.976-25.162-33.991-25.162-15.6,0-31.342,5.886-40.613,10.595L14.26,20.76C26.179,13.991,48.84,7.222,73.413,7.222c38.553,0,64.451,19.129,64.451,47.381,0,20.895-12.066,36.051-35.021,44.144a3.813,3.813,0,0,0-2.5,3.532v.589a3.9,3.9,0,0,0,3.09,3.679c20.6,3.679,41.5,19.423,41.5,46.2a61.07,61.07,0,0,1-1.177,11.625,3.8,3.8,0,0,0,2.8,4.414,3.723,3.723,0,0,0,4.414-2.8,64.824,64.824,0,0,0,1.324-13.1c0-23.691-14.715-43.114-37.67-50.913,19.865-9.859,30.607-26.339,30.607-47.234C145.221,27.528,123,.012,73.413.012,45.6-.135,20.587,7.958,8.08,15.9a3.774,3.774,0,0,0-1.619,4.12l9.712,34.727A3.533,3.533,0,0,0,18.38,57.1a3.625,3.625,0,0,0,3.237-.294C28.533,52.69,45.9,45.039,62.671,45.039s26.634,6.622,26.634,17.8c0,18.835-29.577,19.865-32.961,20.012H37.8a3.643,3.643,0,0,0-3.679,3.679v34.432a3.643,3.643,0,0,0,3.679,3.679H57.374c17.363,0,37.67,6.769,37.67,25.6,0,14.715-12.949,23.838-33.844,23.838s-41.937-10.153-45.91-12.213a3.585,3.585,0,0,0-3.237,0,4.017,4.017,0,0,0-2.06,2.354L.134,199.985a3.571,3.571,0,0,0,1.619,4.12c11.478,7.357,34.138,15.009,62.832,15.009H326.508a106.167,106.167,0,1,0,.147-212.333Z" transform="translate(0.01 -0.01)" fill="#c6c6c6"/>
    </g>
  </g>
</svg>
