<svg xmlns="http://www.w3.org/2000/svg" width="439.556" height="219.106" viewBox="0 0 439.556 219.106">
  <g id="Group_109" data-name="Group 109" transform="translate(-747.539 -4176.586)">
    <text id="Contact_us_for_booking" data-name="Contact us for booking" transform="translate(918 4236)" font-size="18" font-family="Barlow-Bold, Barlow" font-weight="700"><tspan x="0" y="0">Contact us for booking</tspan></text>
    <text id="Lorem_Ipsum_kısaca_Lipsum_masaüstü_yayıncılık_ve_sektöründe_kullanılan_taklit_yazı." data-name="Lorem Ipsum, kısaca Lipsum, masaüstü yayıncılık ve sektöründe kullanılan taklit yazı." transform="translate(918 4256)" font-size="20" font-family="Barlow-Regular, Barlow" letter-spacing="0.1em"><tspan x="0" y="20">Lorem Ipsum, kısaca </tspan><tspan x="0" y="44">Lipsum, masaüstü </tspan><tspan x="0" y="68">yayıncılık ve sektöründe </tspan><tspan x="0" y="92">kullanılan taklit yazı.</tspan></text>
    <g id="_ÎÓÈ_1" data-name="—ÎÓÈ_1" transform="translate(747.539 4176.586)">
      <path id="Path_63" data-name="Path 63" d="M331.721,3.585H151a3.734,3.734,0,0,0,0,7.468H331.721a100.368,100.368,0,0,1,0,200.735H7.468V187.741l25.689-23.15c47.5-42.417,68.7-65.717,69.451-91.108,0-21.358-14.189-34.2-37.937-34.2-14.04,0-28.378,5.078-42.865,15.085L10.9,26.585C28.079,14.338,51.08,7.468,74.529,7.468c42.716,0,69.3,23.6,69.3,61.535,0,31.962-21.657,57.8-54.067,86.776L70.5,171.76a3.678,3.678,0,0,0-1.344,2.838v.6a3.7,3.7,0,0,0,3.734,3.734H151.3a3.734,3.734,0,0,0,0-7.468H82.445l12.1-10.156c29.423-26.287,56.606-55.71,56.606-92.452C151.149,27.034,121.128,0,74.529,0,48.392,0,22.7,8.065,4.033,22.254a3.753,3.753,0,0,0-1.195,4.331L16.579,61.535a3.823,3.823,0,0,0,2.539,2.24,4.148,4.148,0,0,0,3.286-.6C36.742,52.275,50.931,46.6,64.671,46.6c19.715,0,30.469,9.409,30.469,26.585-.6,22.553-21.209,44.658-66.912,85.731l-27.034,24.2A3.824,3.824,0,0,0,0,185.949v29.423a3.7,3.7,0,0,0,3.734,3.734H331.721A107.979,107.979,0,0,0,439.556,111.271C439.556,51.827,391.165,3.585,331.721,3.585Z" transform="translate(0)" fill="#c6c6c6"/>
    </g>
  </g>
</svg>
