<svg xmlns="http://www.w3.org/2000/svg" width="446.626" height="219.107" viewBox="0 0 446.626 219.107">
  <g id="Group_108" data-name="Group 108" transform="translate(-200 -4176.586)">
    <text id="Select_your_package" data-name="Select your package" transform="translate(331 4236)" font-size="18" font-family="Barlow-Bold, Barlow" font-weight="700"><tspan x="0" y="0">Select your package</tspan></text>
    <text id="Lorem_Ipsum_kısaca_Lipsum_masaüstü_yayıncılık_ve_sektöründe_kullanılan_taklit_yazı." data-name="Lorem Ipsum, kısaca Lipsum, masaüstü yayıncılık ve sektöründe kullanılan taklit yazı." transform="translate(331 4256)" font-size="20" font-family="Barlow-Regular, Barlow" letter-spacing="0.1em"><tspan x="0" y="20">Lorem Ipsum, kısaca </tspan><tspan x="0" y="44">Lipsum, masaüstü </tspan><tspan x="0" y="68">yayıncılık ve sektöründe </tspan><tspan x="0" y="92">kullanılan taklit yazı.</tspan></text>
    <g id="_ÎÓÈ_1" data-name="—ÎÓÈ_1" transform="translate(200 4176.586)">
      <path id="Path_61" data-name="Path 61" d="M100.814,218.956a3.757,3.757,0,0,1-3.793-3.793V7.587H60.6L8.255,32.016,14.78,61.453,50.741,44.307A8.244,8.244,0,0,1,52.41,44h.607A3.757,3.757,0,0,1,56.811,47.8V215.314a3.793,3.793,0,1,1-7.587,0V53.411L13.717,70.406a4.251,4.251,0,0,1-3.338,0,3.423,3.423,0,0,1-1.973-2.58L.061,30.651A3.87,3.87,0,0,1,2.185,26.4L58.176.3A8.243,8.243,0,0,1,59.845,0h40.969a3.757,3.757,0,0,1,3.793,3.793V215.162A3.757,3.757,0,0,1,100.814,218.956Z" transform="translate(0.004)" fill="#c6c6c6"/>
      <path id="Path_62" data-name="Path 62" d="M246.437,218.956H10.183a3.793,3.793,0,1,1,0-7.587H246.437A102.091,102.091,0,0,0,348.4,109.4c0-56.294-45.824-101.815-101.967-101.815H41.9A3.757,3.757,0,0,1,38.1,3.793,3.757,3.757,0,0,1,41.9,0H246.437a109.554,109.554,0,0,1,0,219.107Z" transform="translate(90.635)" fill="#c6c6c6"/>
    </g>
  </g>
</svg>
