<svg xmlns="http://www.w3.org/2000/svg" width="454.543" height="218.999" viewBox="0 0 454.543 218.999">
  <g id="Group_82" data-name="Group 82" transform="translate(-200 -4575)">
    <text id="Ask_questions_about_your_shooting" data-name="Ask questions about your
shooting" transform="translate(385 4631)" font-size="18" font-family="Barlow-Bold, Barlow" font-weight="700"><tspan x="0" y="0">Ask questions about your</tspan><tspan x="0" y="22">shooting</tspan></text>
    <text id="Lorem_Ipsum_kısaca_Lipsum_masaüstü_yayıncılık_ve_sektöründe_kullanılan_taklit_yazı." data-name="Lorem Ipsum, kısaca Lipsum, masaüstü yayıncılık ve sektöründe kullanılan taklit yazı." transform="translate(385 4662)" font-size="20" font-family="Barlow-Regular, Barlow" letter-spacing="0.1em"><tspan x="0" y="20">Lorem Ipsum, kısaca </tspan><tspan x="0" y="44">Lipsum, masaüstü </tspan><tspan x="0" y="68">yayıncılık ve sektöründe </tspan><tspan x="0" y="92">kullanılan taklit yazı.</tspan></text>
    <g id="_ÎÓÈ_1" data-name="—ÎÓÈ_1" transform="translate(200 4575)">
      <g id="Group_80" data-name="Group 80">
        <path id="Path_65" data-name="Path 65" d="M54.651,2.632a3.639,3.639,0,0,0-3.339,2.125c-2.58,5.008-4.857,10.017-7.133,14.721-3.946,8.347-7.74,16.087-12.293,24.434L3.657,90.049a5.971,5.971,0,0,0-.607,1.973v.607a3.757,3.757,0,0,0,3.794,3.794h47.5a3.757,3.757,0,0,0,3.794-3.794v-46.9c0-11.231.455-23.676,1.669-39.156a4.006,4.006,0,0,0-1.062-2.884A3.8,3.8,0,0,0,56.017,2.48H54.651Zm-4.1,43.1v43.1H13.218L38.412,47.706v-.152c4.553-8.5,8.347-16.391,12.445-24.89,0-.152.152-.3.3-.607C50.7,30.709,50.553,38.449,50.553,45.733Z" transform="translate(43.239 35.158)" fill="#c6c6c6"/>
        <path id="Path_66" data-name="Path 66" d="M345.119,0H171.952a3.757,3.757,0,0,0-3.794,3.794,3.757,3.757,0,0,0,3.794,3.794H345.119a101.987,101.987,0,1,1,0,203.974H101.229V164.97a3.757,3.757,0,0,0-3.794-3.794H7.588V133.858L85.9,7.588h54.636v120.2a3.757,3.757,0,0,0,3.794,3.794h21.551v29.443H144.331a3.794,3.794,0,1,0,0,7.588h25.345a3.757,3.757,0,0,0,3.794-3.794V127.787a3.757,3.757,0,0,0-3.794-3.794H148.125V3.794A3.757,3.757,0,0,0,144.331,0H83.776a3.407,3.407,0,0,0-3.187,1.821L.607,130.671A7.639,7.639,0,0,0,0,132.644v32.174a3.757,3.757,0,0,0,3.794,3.794H93.641V215.2A3.757,3.757,0,0,0,97.435,219H344.967a109.5,109.5,0,1,0,.152-219Z" fill="#c6c6c6"/>
      </g>
    </g>
  </g>
</svg>
