<svg id="Group_19" data-name="Group 19" xmlns="http://www.w3.org/2000/svg" width="152.853" height="24.833" viewBox="0 0 152.853 24.833">
  <path id="Icon_awesome-star" data-name="Icon awesome-star" d="M13.022.863,9.855,7.284,2.77,8.317a1.553,1.553,0,0,0-.858,2.648l5.126,5L5.825,23.016a1.551,1.551,0,0,0,2.25,1.634l6.338-3.332,6.338,3.332A1.552,1.552,0,0,0,23,23.016L21.79,15.96l5.126-5a1.553,1.553,0,0,0-.858-2.648L18.973,7.284,15.806.863a1.553,1.553,0,0,0-2.784,0Z" transform="translate(125.467 0.001)" fill="#ffc000"/>
  <path id="Icon_awesome-star-2" data-name="Icon awesome-star" d="M13.022.863,9.855,7.284,2.77,8.317a1.553,1.553,0,0,0-.858,2.648l5.126,5L5.825,23.016a1.551,1.551,0,0,0,2.25,1.634l6.338-3.332,6.338,3.332A1.552,1.552,0,0,0,23,23.016L21.79,15.96l5.126-5a1.553,1.553,0,0,0-.858-2.648L18.973,7.284,15.806.863a1.553,1.553,0,0,0-2.784,0Z" transform="translate(93.74 0.001)" fill="#ffc000"/>
  <path id="Icon_awesome-star-3" data-name="Icon awesome-star" d="M13.022.863,9.855,7.284,2.77,8.317a1.553,1.553,0,0,0-.858,2.648l5.126,5L5.825,23.016a1.551,1.551,0,0,0,2.25,1.634l6.338-3.332,6.338,3.332A1.552,1.552,0,0,0,23,23.016L21.79,15.96l5.126-5a1.553,1.553,0,0,0-.858-2.648L18.973,7.284,15.806.863a1.553,1.553,0,0,0-2.784,0Z" transform="translate(62.013 0.001)" fill="#ffc000"/>
  <path id="Icon_awesome-star-4" data-name="Icon awesome-star" d="M13.022.863,9.855,7.284,2.77,8.317a1.553,1.553,0,0,0-.858,2.648l5.126,5L5.825,23.016a1.551,1.551,0,0,0,2.25,1.634l6.338-3.332,6.338,3.332A1.552,1.552,0,0,0,23,23.016L21.79,15.96l5.126-5a1.553,1.553,0,0,0-.858-2.648L18.973,7.284,15.806.863a1.553,1.553,0,0,0-2.784,0Z" transform="translate(30.286 0.001)" fill="#ffc000"/>
  <path id="Icon_awesome-star-5" data-name="Icon awesome-star" d="M13.022.863,9.855,7.284,2.77,8.317a1.553,1.553,0,0,0-.858,2.648l5.126,5L5.825,23.016a1.551,1.551,0,0,0,2.25,1.634l6.338-3.332,6.338,3.332A1.552,1.552,0,0,0,23,23.016L21.79,15.96l5.126-5a1.553,1.553,0,0,0-.858-2.648L18.973,7.284,15.806.863a1.553,1.553,0,0,0-2.784,0Z" transform="translate(-1.441 0.001)" fill="#ffc000"/>
</svg>
