<svg xmlns="http://www.w3.org/2000/svg" width="175.73" height="65.58" viewBox="0 0 175.73 65.58">
  <g id="Group_34" data-name="Group 34" transform="translate(-298 -4544)">
    <path id="Path_29" data-name="Path 29" d="M6.27,44.83V24.1H.15V14.04H23.42V24.1H17.3V44.83Zm20.4-14.1V14.04H37.71V30.83a8.184,8.184,0,0,0,.67,4.01,2.552,2.552,0,0,0,2.39,1.13,2.492,2.492,0,0,0,2.35-1.16,7.771,7.771,0,0,0,.7-3.98V14.04H54.86v16.7a28.848,28.848,0,0,1-.43,5.41,9.518,9.518,0,0,1-1.38,3.55,11.857,11.857,0,0,1-5.02,4.4,16.424,16.424,0,0,1-7.28,1.56,16.556,16.556,0,0,1-7.31-1.56,11.984,11.984,0,0,1-5.02-4.4,10.07,10.07,0,0,1-1.35-3.52,28.6,28.6,0,0,1-.43-5.44h0Zm44.74-8.78v6.02h1.71a3.5,3.5,0,0,0,2.42-.76,2.9,2.9,0,0,0,.86-2.2,3.036,3.036,0,0,0-.86-2.26,3.493,3.493,0,0,0-2.42-.8ZM60.58,44.82V14.04H74.46c4.01,0,7.09.89,9.2,2.66,2.14,1.8,3.18,4.37,3.18,7.71a8.668,8.668,0,0,1-1.59,5.41,6.275,6.275,0,0,1-4.31,2.48L89.1,44.84H76.75L71.4,34.69V44.84H60.57Zm27.95-2.63,3.52-8.62a21.792,21.792,0,0,0,4.22,2.42,8.952,8.952,0,0,0,3.46.8,3.035,3.035,0,0,0,1.8-.46,1.314,1.314,0,0,0,.64-1.16c0-.86-1.07-1.5-3.24-1.96-.7-.15-1.25-.28-1.65-.34a9.774,9.774,0,0,1-5.26-3,7.967,7.967,0,0,1-1.83-5.35,10.267,10.267,0,0,1,3.55-8.07,13.62,13.62,0,0,1,9.3-3.12,19.869,19.869,0,0,1,5.2.7,23.561,23.561,0,0,1,5.17,2.11l-3.36,8.04a14.553,14.553,0,0,0-3.21-1.8,8.62,8.62,0,0,0-3.09-.61,3.292,3.292,0,0,0-1.8.4,1.193,1.193,0,0,0-.61,1.07q0,1.335,4.59,2.29c.49.12.86.21,1.13.28a8.633,8.633,0,0,1,4.98,2.91,8.133,8.133,0,0,1,1.83,5.35,10.585,10.585,0,0,1-3.7,8.35,14.018,14.018,0,0,1-9.57,3.24,22.856,22.856,0,0,1-6.02-.86,26.231,26.231,0,0,1-6.02-2.6h0Zm39.57-8.56h4.59l-.95-3.49c-.46-1.77-.76-3.12-.95-4.1a22.691,22.691,0,0,1-.31-2.66h-.18c-.06.83-.15,1.71-.31,2.66-.18.98-.49,2.32-.95,4.1l-.95,3.49h0ZM113.45,44.82l10.95-30.8h12.29l10.73,30.8H135.55l-1.01-3.88h-8.32l-.92,3.88H113.43Zm46.02-12.54V37.2h1.83a4.254,4.254,0,0,0,2.54-.64,2.087,2.087,0,0,0,.89-1.83,1.99,1.99,0,0,0-.89-1.8,4.254,4.254,0,0,0-2.54-.64h-1.83Zm0-10.92v4.28h1.44a3.311,3.311,0,0,0,2.05-.55,1.916,1.916,0,0,0,.7-1.59,1.976,1.976,0,0,0-.7-1.62,3.314,3.314,0,0,0-2.05-.52ZM149.1,44.82V14.04h14.68c3.15,0,5.63.73,7.37,2.23a7.558,7.558,0,0,1,2.63,6.18,6.967,6.967,0,0,1-1.22,4.19,5.964,5.964,0,0,1-3.55,2.17,7.973,7.973,0,0,1,4.65,2.45,7.225,7.225,0,0,1,1.53,4.86,7.594,7.594,0,0,1-2.91,6.51q-2.895,2.205-8.53,2.2H149.1Z" transform="translate(298 4544)" fill="#ed1c24" fill-rule="evenodd"/>
    <path id="Path_30" data-name="Path 30" d="M38.2,17.09a2.373,2.373,0,0,1,.73-1.74,2.459,2.459,0,0,1,1.8-.73,2.512,2.512,0,0,1,1.83.73,2.373,2.373,0,0,1,.73,1.74,2.326,2.326,0,0,1-.73,1.74,2.48,2.48,0,0,1-1.83.73,2.412,2.412,0,0,1-1.8-.73,2.281,2.281,0,0,1-.73-1.74Z" transform="translate(298 4544)" fill="#0095da" fill-rule="evenodd"/>
    <path id="Path_31" data-name="Path 31" d="M38.2,23a2.373,2.373,0,0,1,.73-1.74,2.459,2.459,0,0,1,1.8-.73,2.512,2.512,0,0,1,1.83.73,2.439,2.439,0,0,1,0,3.48,2.48,2.48,0,0,1-1.83.73,2.412,2.412,0,0,1-1.8-.73A2.373,2.373,0,0,1,38.2,23Z" transform="translate(298 4544)" fill="#0095da" fill-rule="evenodd"/>
    <path id="Path_32" data-name="Path 32" d="M28.93.18l.49-.06.37.06.55.12.34-.12L31.11,0l.31.67.18.43.37.18.37.24.18.34-.55.18-.31-.12-.37-.21-.43.03-.31.31-.34.24-.37.31-.31.37-.18.37-.43.43-.37.43-.06-.43.24-.31a10.528,10.528,0,0,0,.67-1.04l-.92.24-.49-.8.49-.12.31-.28-.24-.37s.21-.89.37-.92h0Z" transform="translate(298 4544)" fill="#ed1c24" fill-rule="evenodd"/>
    <path id="Path_33" data-name="Path 33" d="M32.38,2.23l.31-.37h.46l.49.06.55.06.55.24.61.24.52-.18.73-.43.55-.34.55-.31a1.656,1.656,0,0,1,.58-.18l.31-.24.49.12.49.12.49.12.43-.18.34-.37L41.2.28l.31.24V.89l.18.31.37.06.49.12.31.31.18.28.21.37h.61l.55.06.55.31.49.24.52-.12.55-.31.49-.12.49.18.49.24.58-.06L49,2.39l.43-.43.37-.28.18-.31.61.12.34.21.37-.15.73-.06.43.4.18.61.37.31.24.31-.06.43.24.37.46.24.43.12.55.28.18.31v.49l-.67.24-.24.37.06.31.31.24v.46l-.12.61.12.55.31.49.37.18V9.3l-.24.28h-.37l-.37-.21-.49-.06-.52.15-.43-.15-.31.09-.55.43-.49-.18-.43.18-.76.12s-.06.18-.49,0-.37-.12-.37-.12l-.55.18-.64.43-.67.37-.61-.06h-.73l-.37-.31-.34-.18-.55.31-.43.31-.61-.12-.37-.18-.34.43-.31.31.18.31-.18.34-.61.43-.31-.18.12-.58.12-.55-.12-.37-.37.06-.73.06-.7-.49-.61.55-.49.49-.55.12-.49.12-.58.24-.55-.31-.92-.86-.52-.43-.73-.37-.37.06-.24.43-.24.43-.43.31-.55.06-.4-.31-.43-.49-.49-.43-.49-.18-.31.24-.58-.06-.49-.37-.31-.52.31-.49-.24-.43-.37-.31-.24-.61-.61-.24-.18-.4-.06-.49a.561.561,0,0,1,.49.12v.43l.37-.31.24-.37-.06-.61.18-.61-.37.12h-.49l.06-.43.61-.4.37-.49.12-.37L29.92,3l.49.18.46.06a.676.676,0,0,1,.24-.43l.31.18-.12.43.37.06.49-.12a1.039,1.039,0,0,1,.43-.37l1.38.06-1.19-.37s-.43-.73-.37-.49h0Z" transform="translate(298 4544)" fill="#ed1c24" fill-rule="evenodd"/>
    <path id="Path_34" data-name="Path 34" d="M25.69,2.26H0v7.8H25.69V2.26Z" transform="translate(298 4544)" fill="#0095da" fill-rule="evenodd"/>
    <path id="Path_35" data-name="Path 35" d="M172.66,2.57H56.88v7.8h116.7V2.57Z" transform="translate(298 4544)" fill="#0095da" fill-rule="evenodd"/>
    <path id="Path_36" data-name="Path 36" d="M5.99,56.57V51.52H4.61V49.96H9.07v1.56H7.69v5.05H5.98Zm3.88-6.61h1.71v3.21a8.794,8.794,0,0,0,.03,1.01,2.327,2.327,0,0,0,.09.52.7.7,0,0,0,.37.37,1.2,1.2,0,0,0,1.16,0,.653.653,0,0,0,.34-.37,2.218,2.218,0,0,0,.12-.52,8.794,8.794,0,0,0,.03-1.01V49.96H15.4v3.49a7.078,7.078,0,0,1-.12,1.59,1.92,1.92,0,0,1-.4.89,2,2,0,0,1-.89.61,4.458,4.458,0,0,1-1.35.18,4.324,4.324,0,0,1-1.35-.18,2.143,2.143,0,0,1-.89-.61,2.385,2.385,0,0,1-.43-.89,9.5,9.5,0,0,1-.12-1.59V49.96h0Zm3-1.56a.686.686,0,0,1,.18-.46.615.615,0,0,1,.43-.18.566.566,0,0,1,.43.18.678.678,0,0,1,0,.92.6.6,0,0,1-.86,0,.634.634,0,0,1-.18-.46Zm-1.65,0a.686.686,0,0,1,.18-.46.551.551,0,0,1,.43-.18.615.615,0,0,1,.43.18.678.678,0,0,1,0,.92.551.551,0,0,1-.43.18.511.511,0,0,1-.43-.18.634.634,0,0,1-.18-.46Zm5.5,8.17V49.96h1.77a7.926,7.926,0,0,1,1.44.09,1.737,1.737,0,0,1,1.22,1.04,2.288,2.288,0,0,1,.18.92,1.977,1.977,0,0,1-.37,1.25,1.76,1.76,0,0,1-1.01.64l1.68,2.66H19.7l-1.41-2.6v2.6H16.7Zm1.59-3.49h.31a1.347,1.347,0,0,0,.8-.21.682.682,0,0,0,.24-.61.876.876,0,0,0-.21-.7,1.146,1.146,0,0,0-.8-.21h-.34v1.74h0Zm3.98,3.49V49.96h1.68v3l1.99-3h1.96l-2.29,3.21,2.51,3.39H26l-2.02-2.97v2.97H22.3Zm6.36,0V49.96h1.71v6.61Zm.24-8.17a.686.686,0,0,1,.18-.46.542.542,0,0,1,.43-.21.558.558,0,0,1,.46.21.634.634,0,0,1,.18.46.657.657,0,0,1-.18.49.634.634,0,0,1-.46.18.615.615,0,0,1-.43-.18.706.706,0,0,1-.18-.49Zm3.94,8.17V53.54l-2.17-3.58h1.96l.83,1.68a.093.093,0,0,0,.03.06,1.975,1.975,0,0,1,.18.49,2.525,2.525,0,0,1,.18-.49c0-.03.03-.03.03-.06l.83-1.68h1.96l-2.17,3.58v3.03H32.84Zm4.1,0V49.96h3.82V51.4H38.58v1.13h2.05v1.44H38.58v1.1h2.17v1.5H36.93Zm7.95-2.14a2.78,2.78,0,0,0,.73.67,1.359,1.359,0,0,0,.73.21.81.81,0,0,0,.55-.18.579.579,0,0,0,.21-.49.731.731,0,0,0-.18-.52,3.876,3.876,0,0,0-.86-.37,2.508,2.508,0,0,1-1.28-.67,1.735,1.735,0,0,1-.37-1.16,2.073,2.073,0,0,1,.58-1.53,2.117,2.117,0,0,1,1.56-.61,3.521,3.521,0,0,1,.98.15,2.484,2.484,0,0,1,.86.46l-.52,1.28a2.241,2.241,0,0,0-.58-.4,1.572,1.572,0,0,0-.61-.12.644.644,0,0,0-.49.15.442.442,0,0,0-.21.4.49.49,0,0,0,.18.4,2.51,2.51,0,0,0,.64.28c.03,0,.06.03.09.03a3.3,3.3,0,0,1,1.35.64,1.64,1.64,0,0,1,.34.58,2.126,2.126,0,0,1,.12.76,2.208,2.208,0,0,1-.64,1.68,2.4,2.4,0,0,1-1.74.64,3.072,3.072,0,0,1-1.19-.21,3.19,3.19,0,0,1-1.01-.73l.76-1.35h0Zm4.77,2.14V49.96h3.82V51.4H51.3v1.13h2.05v1.44H51.3v1.1h2.17v1.5H49.65Zm6.06,0V53.54l-2.2-3.58h1.96l.86,1.68v.06a1.975,1.975,0,0,1,.18.49,2.525,2.525,0,0,1,.18-.49l.03-.06.86-1.68h1.93l-2.17,3.58v3.03H55.72Zm5.41-2.48H62.8l-.61-2.17a2.258,2.258,0,0,1-.09-.34c-.03-.15-.06-.34-.12-.58-.03.18-.09.34-.12.49s-.06.28-.09.43l-.64,2.17h0Zm-2.35,2.48,2.14-6.61h2.11l2.17,6.61H63.48l-.31-1.19H60.75l-.31,1.19H58.76Zm7,0V49.96h1.71v2.57h2.26V49.96h1.68v6.61H69.74V53.88H67.48v2.69Zm8.62-2.48H76.1l-.64-2.17a2.258,2.258,0,0,1-.09-.34c-.03-.15-.06-.34-.12-.58-.03.18-.09.34-.12.49s-.06.28-.09.43l-.64,2.17h0Zm-2.35,2.48,2.14-6.61h2.11l2.17,6.61H76.78l-.34-1.19H74.02l-.31,1.19H72.03Zm7.55,0V51.52H78.18V49.96h4.5v1.56H81.27v5.05H79.59Zm8.29-2.48h1.68l-.61-2.17a2.258,2.258,0,0,1-.09-.34c-.03-.15-.09-.34-.12-.58-.03.18-.09.34-.12.49s-.06.28-.09.43l-.64,2.17h0Zm-2.39,2.48,2.17-6.61h2.11l2.17,6.61H90.23l-.31-1.19H87.5l-.31,1.19H85.48ZM96.9,50.21v1.96a2.639,2.639,0,0,0-.7-.58,1.359,1.359,0,0,0-.73-.21,1.456,1.456,0,0,0-1.19.55,1.951,1.951,0,0,0-.46,1.38,1.872,1.872,0,0,0,.46,1.31,1.537,1.537,0,0,0,1.19.52,1.638,1.638,0,0,0,.73-.18,3.066,3.066,0,0,0,.7-.61v1.96a5.8,5.8,0,0,1-.83.34,3.379,3.379,0,0,1-.8.09,3.171,3.171,0,0,1-.95-.12,2.611,2.611,0,0,1-.8-.4,3.229,3.229,0,0,1-1.07-1.25,3.837,3.837,0,0,1-.37-1.68,3.907,3.907,0,0,1,.24-1.38,3.3,3.3,0,0,1,.7-1.13,2.676,2.676,0,0,1,.98-.73,3.474,3.474,0,0,1,1.25-.24,2.351,2.351,0,0,1,.8.12,2.808,2.808,0,0,1,.83.31h0Zm.95,6.36V49.96h3.82V51.4H99.5v1.13h2.05v1.44H99.5v1.1h2.17v1.5H97.85Zm4.92,0V49.96h1.65l2.35,3.39a2.952,2.952,0,0,1,.21.4c.09.21.21.46.34.76-.03-.28-.06-.52-.06-.73a3.956,3.956,0,0,1-.03-.58V49.96h1.62v6.61h-1.62l-2.35-3.43a4.353,4.353,0,0,1-.21-.43,5.146,5.146,0,0,1-.34-.73c.03.28.06.52.06.73a3.956,3.956,0,0,1,.03.58v3.27h-1.65Zm8.32,0V51.52h-1.38V49.96h4.46v1.56h-1.38v5.05h-1.71Zm5.23-2.48H118l-.64-2.17a2.231,2.231,0,0,0-.06-.34c-.03-.15-.09-.34-.15-.58-.03.18-.06.34-.09.49s-.09.28-.12.43l-.61,2.17h0Zm-2.39,2.48,2.14-6.61h2.14l2.14,6.61h-1.68l-.31-1.19h-2.42l-.34,1.19h-1.68Zm7.03,0V49.96h1.68v5.05h2.11v1.56Zm6.27-2.48h1.68l-.61-2.17a2.258,2.258,0,0,1-.09-.34c-.03-.15-.09-.34-.12-.58a3.85,3.85,0,0,0-.12.49c-.03.15-.06.28-.09.43l-.64,2.17h0Zm-2.39,2.48,2.17-6.61h2.11l2.14,6.61h-1.68l-.31-1.19h-2.42l-.31,1.19h-1.71Zm7.03,0V49.96h1.77a7.485,7.485,0,0,1,1.44.09,1.82,1.82,0,0,1,.73.34,1.487,1.487,0,0,1,.49.7,2.288,2.288,0,0,1,.18.92,1.968,1.968,0,0,1-.34,1.25,1.841,1.841,0,0,1-1.04.64l1.68,2.66h-1.9l-1.44-2.6v2.6h-1.59Zm1.59-3.49h.31a1.347,1.347,0,0,0,.8-.21.7.7,0,0,0,.28-.61.876.876,0,0,0-.24-.7,1.146,1.146,0,0,0-.8-.21h-.34v1.74h0Zm4.04,3.49V49.96h1.71v6.61Zm7.37-3.98h.34a1.971,1.971,0,0,0,.89-.15.568.568,0,0,0,.21-.52.6.6,0,0,0-.21-.52,1.793,1.793,0,0,0-.86-.15h-.37V52.6h0Zm-1.56,3.98V49.96h1.71a8.953,8.953,0,0,1,1.47.06,1.568,1.568,0,0,1,.7.24,1.22,1.22,0,0,1,.55.55,1.632,1.632,0,0,1,.18.8,1.319,1.319,0,0,1-.28.89,1.674,1.674,0,0,1-.86.49,1.439,1.439,0,0,1,1.01.49,1.685,1.685,0,0,1,.4,1.19,2.187,2.187,0,0,1-.21.92,1.509,1.509,0,0,1-.61.64,2.448,2.448,0,0,1-.8.24,8.894,8.894,0,0,1-1.53.09H143.3Zm1.56-1.38h.61a1.635,1.635,0,0,0,.86-.15.582.582,0,0,0,.24-.52.73.73,0,0,0-.21-.58,1.573,1.573,0,0,0-.86-.18h-.64V55.2h0Zm4.37,1.38V49.96h1.74v6.61Zm.24-8.17a.686.686,0,0,1,.18-.46.6.6,0,0,1,.46-.21.542.542,0,0,1,.43.21.558.558,0,0,1,.21.46.657.657,0,0,1-.18.49.678.678,0,0,1-.92,0,.706.706,0,0,1-.18-.49Zm2.84,8.17V49.96h1.77a8.09,8.09,0,0,1,1.47.09,1.759,1.759,0,0,1,.7.34,1.787,1.787,0,0,1,.52.7,2.288,2.288,0,0,1,.18.92,1.977,1.977,0,0,1-.37,1.25,1.841,1.841,0,0,1-1.04.64l1.71,2.66h-1.93l-1.44-2.6v2.6H152.3Zm1.59-3.49h.34a1.417,1.417,0,0,0,.8-.21.767.767,0,0,0,.24-.61.876.876,0,0,0-.24-.7,1.1,1.1,0,0,0-.8-.21h-.34v1.74h0Zm4.01,3.49V49.96h1.68v5.05h2.11v1.56Zm4.68,0V49.96h1.71v6.61Zm.24-8.17a.686.686,0,0,1,.18-.46.542.542,0,0,1,.43-.21.558.558,0,0,1,.46.21.634.634,0,0,1,.18.46.657.657,0,0,1-.18.49.634.634,0,0,1-.46.18.615.615,0,0,1-.43-.18.706.706,0,0,1-.18-.49Zm5.78,5.72V52.74h3.33a.61.61,0,0,1,.03.15v.21a3.769,3.769,0,0,1-.86,2.66,3.019,3.019,0,0,1-2.39.95,3.738,3.738,0,0,1-1.35-.24,3.1,3.1,0,0,1-1.07-.73,3.677,3.677,0,0,1-.67-1.13,4,4,0,0,1,0-2.73,3.6,3.6,0,0,1,.7-1.1,2.731,2.731,0,0,1,1.07-.73,3.229,3.229,0,0,1,1.32-.24,3.368,3.368,0,0,1,1.62.37,3.551,3.551,0,0,1,1.19,1.16l-1.5.73a1.783,1.783,0,0,0-.58-.58,1.463,1.463,0,0,0-.73-.18,1.38,1.38,0,0,0-1.19.55,2.212,2.212,0,0,0-.46,1.47,2.242,2.242,0,0,0,.46,1.5,1.453,1.453,0,0,0,1.19.52,1.516,1.516,0,0,0,1.07-.34,1.25,1.25,0,0,0,.52-.89h-1.71Zm-1.28-6.39h.58a.491.491,0,0,0,.21.46.924.924,0,0,0,.55.15,1.029,1.029,0,0,0,.58-.15.645.645,0,0,0,.21-.46h.55a1.582,1.582,0,0,1-.4,1.04,1.288,1.288,0,0,1-.95.34,1.388,1.388,0,0,1-.98-.34,1.7,1.7,0,0,1-.37-1.04h0Zm5.72,8.84V49.96h1.71v6.61Zm.24-8.17a.686.686,0,0,1,.18-.46.542.542,0,0,1,.43-.21.558.558,0,0,1,.46.21.634.634,0,0,1,.18.46.657.657,0,0,1-.18.49.634.634,0,0,1-.46.18.615.615,0,0,1-.43-.18.706.706,0,0,1-.18-.49Z" transform="translate(298 4544)" fill-rule="evenodd"/>
    <path id="Path_37" data-name="Path 37" d="M5.9,62.87H8.01l-1.04-2.6L5.9,62.87ZM4.37,65.35l2.66-6.21,2.54,6.21H8.96L8.2,63.33H5.72l-.8,2.02H4.37Zm5.41-.98.46-.28a1.331,1.331,0,0,0,.46.7,1.378,1.378,0,0,0,.8.24,1.214,1.214,0,0,0,.89-.34,1.391,1.391,0,0,0,.34-.95,1.261,1.261,0,0,0-.21-.7,2.971,2.971,0,0,0-.95-.67,4.669,4.669,0,0,1-1.22-.83,1.5,1.5,0,0,1-.31-.89,1.317,1.317,0,0,1,.46-1.04,1.536,1.536,0,0,1,1.13-.4,1.744,1.744,0,0,1,.8.18,1.473,1.473,0,0,1,.55.58l-.43.24a.819.819,0,0,0-.4-.4,1.065,1.065,0,0,0-.55-.12,1.1,1.1,0,0,0-.73.24,1.039,1.039,0,0,0-.24.7c0,.43.34.83,1.04,1.19.12.06.21.09.31.15a2.6,2.6,0,0,1,1.01.8,1.533,1.533,0,0,1,.28.95,1.681,1.681,0,0,1-1.77,1.77,1.56,1.56,0,0,1-1.01-.31,1.674,1.674,0,0,1-.67-.86h0Zm4.22,0,.46-.28a1.331,1.331,0,0,0,.46.7,1.378,1.378,0,0,0,.8.24,1.214,1.214,0,0,0,.89-.34,1.391,1.391,0,0,0,.34-.95,1.078,1.078,0,0,0-.24-.7,2.461,2.461,0,0,0-.92-.67,4.669,4.669,0,0,1-1.22-.83,1.5,1.5,0,0,1-.31-.89,1.317,1.317,0,0,1,.46-1.04,1.491,1.491,0,0,1,1.13-.4,1.553,1.553,0,0,1,.76.18,1.154,1.154,0,0,1,.55.58l-.43.24a.761.761,0,0,0-.37-.4,1.111,1.111,0,0,0-.58-.12,1.078,1.078,0,0,0-.7.24.909.909,0,0,0-.24.7c0,.43.34.83,1.04,1.19a1.414,1.414,0,0,1,.28.15,2.743,2.743,0,0,1,1.04.8,1.533,1.533,0,0,1,.28.95,1.681,1.681,0,0,1-1.77,1.77,1.7,1.7,0,0,1-1.04-.31,1.8,1.8,0,0,1-.64-.86h0Zm7.61.67a2.482,2.482,0,0,0,1.04-.21,2.982,2.982,0,0,0,.86-.55,3.5,3.5,0,0,0,.58-.89,2.749,2.749,0,0,0,.18-1.01,3.033,3.033,0,0,0-.18-1.04,3.94,3.94,0,0,0-.58-.86,3.174,3.174,0,0,0-.86-.58,3.033,3.033,0,0,0-1.04-.18,2.866,2.866,0,0,0-1.01.18,3.336,3.336,0,0,0-.86.58,3.1,3.1,0,0,0-.58.86,3.033,3.033,0,0,0-.18,1.04,2.749,2.749,0,0,0,.18,1.01,2.847,2.847,0,0,0,.58.89,2.529,2.529,0,0,0,.86.55,2.259,2.259,0,0,0,1.01.21Zm3.24-2.66a2.616,2.616,0,0,1-.24,1.19,3.031,3.031,0,0,1-.7,1.04,3.258,3.258,0,0,1-1.04.67,3.6,3.6,0,0,1-1.25.24,3.275,3.275,0,0,1-1.22-.24,4,4,0,0,1-1.07-.67,3.343,3.343,0,0,1-.7-1.04,3.12,3.12,0,0,1-.24-1.19,3.023,3.023,0,0,1,.94-2.23,3.181,3.181,0,0,1,1.04-.7,4.425,4.425,0,0,1,1.25-.21,3.276,3.276,0,0,1,1.25.24,2.951,2.951,0,0,1,1.04.67,2.788,2.788,0,0,1,.7,1.01,2.889,2.889,0,0,1,.24,1.22Zm6.09-1.93a3.731,3.731,0,0,0-.92-.55,2.749,2.749,0,0,0-1.01-.18,2.506,2.506,0,0,0-2.63,2.66,3.081,3.081,0,0,0,.18,1.07,2.506,2.506,0,0,0,.55.83,2.275,2.275,0,0,0,.83.55,2.749,2.749,0,0,0,1.01.18,2.991,2.991,0,0,0,1.01-.18,2.7,2.7,0,0,0,.95-.52v.64a3.735,3.735,0,0,1-1.93.58,3.393,3.393,0,0,1-1.25-.24,3.04,3.04,0,0,1-1.04-.64,2.971,2.971,0,0,1-.67-1.01,3.569,3.569,0,0,1-.21-1.25,3.28,3.28,0,0,1,.21-1.25,2.974,2.974,0,0,1,.67-1.01,3.178,3.178,0,0,1,1.04-.64,3.6,3.6,0,0,1,1.25-.24,4.188,4.188,0,0,1,1.07.15,3.212,3.212,0,0,1,.89.49v.58h0Zm1.19,4.89V59.35h.55v5.99Zm2.78-2.48h2.11l-1.04-2.6-1.07,2.6Zm-1.56,2.48,2.66-6.21,2.54,6.21h-.58l-.76-2.02H34.73l-.83,2.02Zm6.51,0V59.87H38.18v-.52h3.88v.52H40.41v5.47Zm3.12,0V59.35h.55v5.99ZM48,65.03a2.259,2.259,0,0,0,1.01-.21,2.35,2.35,0,0,0,.86-.55,2.285,2.285,0,0,0,.58-.89,2.259,2.259,0,0,0,.21-1.01,2.482,2.482,0,0,0-.21-1.04,2.563,2.563,0,0,0-.58-.86,2.755,2.755,0,0,0-2.88-.58,3.5,3.5,0,0,0-.89.58,2.982,2.982,0,0,0-.55.86,2.482,2.482,0,0,0-.21,1.04,2.259,2.259,0,0,0,.21,1.01,2.755,2.755,0,0,0,.55.89,2.982,2.982,0,0,0,.86.55,2.482,2.482,0,0,0,1.04.21h0Zm3.24-2.66A3.082,3.082,0,0,1,51,63.56a3.031,3.031,0,0,1-.7,1.04,3.393,3.393,0,0,1-1.07.67,3.315,3.315,0,0,1-1.22.24,3.559,3.559,0,0,1-1.25-.24,3.85,3.85,0,0,1-1.04-.67,2.9,2.9,0,0,1-.7-1.04,3.12,3.12,0,0,1-.24-1.19,3.356,3.356,0,0,1,.24-1.22,3.353,3.353,0,0,1,1.74-1.71,4.252,4.252,0,0,1,1.25-.21,3.516,3.516,0,0,1,1.25.24,2.951,2.951,0,0,1,1.04.67,2.788,2.788,0,0,1,.7,1.01,3.44,3.44,0,0,1,.24,1.22Zm1.22,2.97V59.1l4.28,5.02V59.35h.49v6.18l-4.28-5.02v4.83h-.49Zm11.68-.31a2.259,2.259,0,0,0,1.01-.21,2.755,2.755,0,0,0,.89-.55,3.5,3.5,0,0,0,.58-.89,2.749,2.749,0,0,0,.18-1.01,3.033,3.033,0,0,0-.18-1.04,2.717,2.717,0,0,0-1.44-1.44,3.033,3.033,0,0,0-1.04-.18,2.749,2.749,0,0,0-1.01.18,3.336,3.336,0,0,0-.86.58,2.423,2.423,0,0,0-.58.86,3.06,3.06,0,0,0-.21,1.04,2.758,2.758,0,0,0,.21,1.01,2.4,2.4,0,0,0,.58.89,2.835,2.835,0,0,0,1.87.76Zm3.24-2.66a3.082,3.082,0,0,1-.24,1.19,3.032,3.032,0,0,1-.7,1.04,3.3,3.3,0,0,1-2.29.91,3.275,3.275,0,0,1-1.22-.24,3.582,3.582,0,0,1-1.07-.67,2.9,2.9,0,0,1-.7-1.04,3.12,3.12,0,0,1-.24-1.19,3.356,3.356,0,0,1,.24-1.22,2.916,2.916,0,0,1,.7-1.01,3.181,3.181,0,0,1,1.04-.7,4.425,4.425,0,0,1,1.25-.21,3.393,3.393,0,0,1,1.25.24,2.951,2.951,0,0,1,1.04.67,2.788,2.788,0,0,1,.7,1.01,3.44,3.44,0,0,1,.24,1.22Zm1.22,2.97V59.35h3v.52H69.15v1.9H71.5v.49H69.15v3.09H68.6Zm7.74,0V59.87H74.69v-.52h3.88v.52H76.89v5.47h-.55Zm3.12-5.99h.55v3.91a1.913,1.913,0,0,0,.4,1.35,2.032,2.032,0,0,0,2.5,0,1.9,1.9,0,0,0,.4-1.35V59.35h.55v3.76a2.569,2.569,0,0,1-.55,1.8,2.537,2.537,0,0,1-3.3,0,2.586,2.586,0,0,1-.55-1.8V59.35h0Zm6.42.49v2.2h.58a1.7,1.7,0,0,0,1.07-.24,1.05,1.05,0,0,0,.31-.83,1.017,1.017,0,0,0-.34-.86,1.578,1.578,0,0,0-1.04-.28h-.58Zm3.15,5.5h-.67L86.22,62.5h-.34v2.84h-.55V59.35h1.13a2.26,2.26,0,0,1,1.47.43,1.694,1.694,0,0,1,.06,2.32,1.476,1.476,0,0,1-1.13.4l2.17,2.84Zm.8,0V59.35h.55v2.81l2.72-2.81h.73l-2.87,2.87,3,3.12h-.8l-2.78-3.03v3.03Zm4.83,0V59.35h.55v5.99Zm1.62-.98.46-.28a1.331,1.331,0,0,0,.46.7,1.378,1.378,0,0,0,.8.24,1.214,1.214,0,0,0,.89-.34,1.377,1.377,0,0,0,.31-.95,1.062,1.062,0,0,0-.21-.7,2.759,2.759,0,0,0-.92-.67,4.669,4.669,0,0,1-1.22-.83,1.323,1.323,0,0,1-.31-.89,1.394,1.394,0,0,1,.43-1.04,1.583,1.583,0,0,1,1.13-.4,1.659,1.659,0,0,1,.8.18,1.154,1.154,0,0,1,.55.58l-.43.24a.9.9,0,0,0-.37-.4,1.111,1.111,0,0,0-.58-.12,1.078,1.078,0,0,0-.7.24.927.927,0,0,0-.27.7c0,.43.37.83,1.07,1.19a1.413,1.413,0,0,1,.28.15,2.743,2.743,0,0,1,1.04.8,1.533,1.533,0,0,1,.28.95,1.717,1.717,0,0,1-.49,1.28,1.624,1.624,0,0,1-1.28.49,1.7,1.7,0,0,1-1.04-.31,1.8,1.8,0,0,1-.64-.86h0Zm4.68.98V59.35h.55V61.8h3.27V59.35h.55v5.99h-.55V62.25h-3.27v3.09Zm9.39,0V59.87H108.7v-.52h3.88v.52H110.9v5.47h-.55Zm3.7-5.5v2.2h.55a1.642,1.642,0,0,0,1.07-.24.959.959,0,0,0,.31-.83,1.007,1.007,0,0,0-.31-.86,1.673,1.673,0,0,0-1.07-.28h-.55Zm3.12,5.5h-.67l-2.11-2.84h-.34v2.84h-.55V59.35h1.1a2.15,2.15,0,0,1,1.47.43,1.658,1.658,0,0,1,.09,2.32,1.6,1.6,0,0,1-1.16.4l2.17,2.84h0Zm1.53-2.48h2.11l-1.04-2.6-1.07,2.6Zm-1.56,2.48,2.66-6.21,2.54,6.21h-.58l-.8-2.02h-2.48l-.8,2.02h-.55Zm7.28.24-2.39-6.24h.64l1.74,4.89,1.83-4.89h.61l-2.45,6.24h0Zm3.12-.24V59.35h3v.52h-2.45v1.9h2.45v.49h-2.45v2.6h2.45v.49h-3Zm4.34,0V59.35h.55v5.5h2.08v.49Zm6.67-2.48h2.11l-1.04-2.6-1.07,2.6Zm-1.56,2.48,2.66-6.21,2.54,6.21h-.58l-.8-2.02h-2.45l-.83,2.02h-.55Zm10.7-4.46a2.227,2.227,0,0,0-.92-.86,2.528,2.528,0,0,0-3.02.45,2.653,2.653,0,0,0-.7,1.96,2.991,2.991,0,0,0,.18,1.01,2.506,2.506,0,0,0,.55.83,2.443,2.443,0,0,0,.8.55,2.749,2.749,0,0,0,1.01.18,2.314,2.314,0,0,0,1.65-.58,2.029,2.029,0,0,0,.64-1.56H145.8V62.4h2.69v.06a3.053,3.053,0,0,1-.8,2.23,2.855,2.855,0,0,1-2.17.83,3.013,3.013,0,0,1-2.23-.89,3.151,3.151,0,0,1-.86-2.26,3.946,3.946,0,0,1,.21-1.22,2.907,2.907,0,0,1,.64-1.01,2.683,2.683,0,0,1,.98-.7,3.844,3.844,0,0,1,1.22-.21,3.521,3.521,0,0,1,1.59.34,2.5,2.5,0,0,1,1.01.95l-.4.37h0Zm1.96,4.46V59.35h3v.52H150.2v1.9h2.45v.49H150.2v2.6h2.45v.49h-3Zm4.34,0V59.1l4.28,5.02V59.35h.52v6.18l-4.28-5.02v4.83h-.52Zm11.16-4.89a3.731,3.731,0,0,0-.92-.55,2.7,2.7,0,0,0-.98-.18,2.509,2.509,0,0,0-2.66,2.66,3.081,3.081,0,0,0,.18,1.07,2.506,2.506,0,0,0,.55.83,2.275,2.275,0,0,0,.83.55,2.749,2.749,0,0,0,1.01.18,2.866,2.866,0,0,0,1.01-.18,2.7,2.7,0,0,0,.95-.52v.64a3.859,3.859,0,0,1-.95.43,3.7,3.7,0,0,1-.98.15,3.516,3.516,0,0,1-1.25-.24,3.356,3.356,0,0,1-1.04-.64,3.486,3.486,0,0,1-.67-1.01,3.569,3.569,0,0,1-.21-1.25,3.28,3.28,0,0,1,.21-1.25,3.488,3.488,0,0,1,.67-1.01,3.178,3.178,0,0,1,1.04-.64,3.6,3.6,0,0,1,1.25-.24,4.007,4.007,0,0,1,1.07.15,2.835,2.835,0,0,1,.89.49v.58h0Zm1.19,4.89V59.35h.55v5.99Zm2.05,0V59.35h3v.52h-2.45v1.9h2.45v.49h-2.45v2.6h2.45v.49h-3Zm3.88-.98.49-.28a1.331,1.331,0,0,0,.46.7,1.275,1.275,0,0,0,.76.24,1.167,1.167,0,0,0,.89-.34,1.262,1.262,0,0,0,.34-.95,1.062,1.062,0,0,0-.21-.7,2.971,2.971,0,0,0-.95-.67,4.384,4.384,0,0,1-1.19-.83,1.323,1.323,0,0,1-.31-.89,1.394,1.394,0,0,1,.43-1.04,1.583,1.583,0,0,1,1.13-.4,1.659,1.659,0,0,1,.8.18,1.473,1.473,0,0,1,.55.58l-.43.24a.9.9,0,0,0-.37-.4,1.259,1.259,0,0,0-.58-.12.969.969,0,0,0-.7.24.933.933,0,0,0-.28.7c0,.43.37.83,1.04,1.19a1.113,1.113,0,0,1,.31.15,2.743,2.743,0,0,1,1.04.8,1.754,1.754,0,0,1,.24.95,1.7,1.7,0,0,1-.46,1.28,1.734,1.734,0,0,1-1.31.49,1.56,1.56,0,0,1-1.01-.31,1.843,1.843,0,0,1-.67-.86h0Z" transform="translate(298 4544)" fill-rule="evenodd"/>
  </g>
</svg>
