<svg id="Katman_x0020_1" xmlns="http://www.w3.org/2000/svg" width="75.982" height="75.689" viewBox="0 0 75.982 75.689">
  <g id="_105553205508160" transform="translate(0 0)">
    <path id="Path_47" data-name="Path 47" d="M16.176,72.74c0-1.7,1.054-2.968,2.226-2.968H51.347a2.57,2.57,0,0,1,2.226,2.82v.742h-37.4ZM75.982,61.718v.908c-.331,3.68-4.629,6.162-7.759,3.032A6.214,6.214,0,0,1,66.632,62.8H44.669v4.6h6.084c2.8,0,5.046,2.153,5.046,4.3,0,1.528.5,4.007-2.078,4.007H16.027c-2.457,0-2.078-2.221-2.078-3.71A4.869,4.869,0,0,1,19,67.4H25.08V62.8H3.71C1.67,62.8,0,61.7,0,59.829V11.895a3.128,3.128,0,0,1,2.047-2.7c.905-.291,30.823-.117,32.531-.117-1-1.486-1.632-1.889-1.632-3.265,0-1.737,3.049-1.82,4.246-2.581a3.21,3.21,0,0,0,.863-.918c1.754-2.253,2.685-3.4,4.686-.806,1.606,2.085,1.445,1.74,4.139,2.688,3.09,1.087,1.2,3.117.016,4.881h6.084a2.381,2.381,0,0,1,1.106-1.268c.479-.229,1.284-.471,1.735-.64,4.028-1.51,2.829-.482,5.6-3.9.214-.265.321-.339.551-.636,2.945-3.81,4.91,2.526,7.013,3.5,2.6,1.206,5.813,1.222,5.813,3.536,0,1.6-2.825,4.128-3.085,5.374-.508,2.435.667,6.44-1.812,6.647V44.84c0,3.2-.358,2.7.791,5l4.7,9.841a5.664,5.664,0,0,1,.591,2.041ZM27.454,62.8h14.84v4.6H27.454ZM2.226,59.383V56.267H63.368c.485,0,.812,1.086,1.167,1.95l.911,2.205H5.342c-1.443,0-3.116.386-3.116-1.039ZM57.135,35.49c1.1-.58,2.308-1.048,3.413-1.632l5.59,11.773c.347.688.544,1.245.889,1.931l6.548,13.787a2.465,2.465,0,0,1-2.342,3.377c-1.384,0-2.112-1.737-2.544-2.8C66.645,56.9,62.648,48.209,60.4,43.063c-.542-1.239-1.085-2.459-1.632-3.71L57.135,35.49Zm-3.413-8.162c0-1,.5-1.781,1.336-1.781,1.687,0,2.129,1.439,2.721,2.622.316.633.609,1.143.884,1.787.3.715.517,1.2.848,1.824-.557.295-1.076.536-1.682.841s-1.187.5-1.732.791a22.65,22.65,0,0,0-1.228-2.927,11.276,11.276,0,0,1-1.146-3.158Zm-2.374-.148a9.866,9.866,0,0,0,1.137,3.612c.512,1.152.9,2.174,1.436,3.313l5.8,13.2c.411.983,2.715,5.924,2.905,6.741H2.226v-41.4c0-1.028.307-1.336,1.336-1.336h31.61c0,1.1-.325,3.413,1.781,3.413,1.157,0,2.791-.827,3.837-.8,1.249.034,2.528.8,3.879.8,1.922,0,1.632-2.517,1.632-3.413h7.42a13.2,13.2,0,0,0,1.424,2.286c.866,1.306.952.805.946,2.913l.184,3.526c.477,3,4.029,1.374,6.618.74,1.86-.456,2.634.461,4.63.627V43.059a5.46,5.46,0,0,1-.8-1.57c-.258-.625-.55-1.14-.828-1.695-1.277-2.553-6.292-13.733-7.46-15.1a4,4,0,0,0-7.083,2.483ZM55.5,9.669a25.68,25.68,0,0,0,5.163-1.961c.747-.7,2.845-3.5,3.3-3.827a34.293,34.293,0,0,0,3.1,3.87A7.775,7.775,0,0,0,69.582,8.8a15.428,15.428,0,0,0,2.69.872c-.056.673-2.052,3.291-2.469,3.913-.828,1.235-.4,2.629-.5,4.4-.036.672-.149.7-.149,1.483-5.468-1.274-3.869-1.667-7.925-.653a21.732,21.732,0,0,1-2.76.653c0-3.678.433-4.6-1.125-6.741A12.819,12.819,0,0,1,55.5,9.669ZM35.468,6.255a16,16,0,0,0,3.177-1.127l2.017-2.435c.533.357,1.494,1.849,2.086,2.366A14.144,14.144,0,0,0,46,6.255c-1.733,3.276-1.929.946-1.929,6.084a23.323,23.323,0,0,0-3.286-.8,19.2,19.2,0,0,0-3.392.8c0-3.91.244-2.839-1.929-6.084Z" transform="translate(0 -0.018)" fill-rule="evenodd"/>
    <path id="Path_48" data-name="Path 48" d="M3016.053,2841.747c1.38.924,4.015,4.1,5.528,5.6.99.984,1.9,1.752,2.894,2.745.494.494.9.944,1.408,1.412a7.086,7.086,0,0,1,1.449,1.371h-15.137c0-1.209-.206-6.643.092-7.328a47.175,47.175,0,0,1,3.767-3.8Zm14.4-1.039c.664.177,1.061.838,1.521,1.3.541.541,4.118,4.121,4.118,4.489v6.381c-7.123,0-4.662.53-7.6-2.191l-2.45-2.3c-.461-.461-1.035-1.278-1.67-1.447.556-.831,2.8-2.835,3.75-3.819A14.059,14.059,0,0,1,3030.448,2840.708Zm-7.717,4.452c-.771-.516-4.852-5.788-6.678-5.788-1.653,0-2.751,2.078-3.858,2.82v-13.208h23.893v13.95a9.645,9.645,0,0,1-1.223-1.3c-1.311-1.3-2.853-3.3-4.416-3.3C3028.378,2838.334,3025.186,2843.517,3022.731,2845.16Zm-12.911-16.621v24.783a1.721,1.721,0,0,0,1.929,1.929h24.783a1.721,1.721,0,0,0,1.929-1.929v-24.783a1.721,1.721,0,0,0-1.929-1.929h-24.783A1.721,1.721,0,0,0,3009.82,2828.539Z" transform="translate(-2990.379 -2808.353)" fill-rule="evenodd"/>
    <path id="Path_49" data-name="Path 49" d="M2251.61,2115.716v4.749a1.192,1.192,0,1,0,2.374,0v-3.71c1.917,0,5.046.47,5.046-1.187a1.116,1.116,0,0,0-1.187-1.187h-4.9A1.341,1.341,0,0,0,2251.61,2115.716Z" transform="translate(-2237.067 -2100.723)" fill-rule="evenodd"/>
    <path id="Path_50" data-name="Path 50" d="M7058.566,6829.423v3.71c-1.917,0-5.046-.47-5.046,1.187a1.253,1.253,0,0,0,1.336,1.188h4.749a1.341,1.341,0,0,0,1.335-1.336v-4.748A1.193,1.193,0,1,0,7058.566,6829.423Z" transform="translate(-7007.961 -6784.007)" fill-rule="evenodd"/>
  </g>
</svg>
