<svg id="Katman_x0020_1" xmlns="http://www.w3.org/2000/svg" width="77.111" height="89.82" viewBox="0 0 77.111 89.82">
  <g id="_105553145653088" transform="translate(0 0)">
    <path id="Path_38" data-name="Path 38" d="M36.1,1782.415c0-6.185,4.552-10.863,9.475-10.863a9.281,9.281,0,0,1,7.639,3.2c5.977,6.385,1.916,18.18-7.149,18.18C40.672,1792.928,36.1,1788.166,36.1,1782.415ZM8.144,1823.064H7.475a1.6,1.6,0,0,1-1.067-.915,3.525,3.525,0,0,1-.2-1.709c.06-7.634.183-4.132-2.664-9.058a25.97,25.97,0,0,1-2.378-5.334A24.319,24.319,0,0,1,0,1799.411V1786.8c0-2.908,1.163-2.568,1.145-5.605A29.858,29.858,0,0,1,1.4,1774.8c.881-3.628,3.456-4.979,6.279-6.582,0-1.852-.319-6.164.27-7.42.566-1.205,4.112-4.552,5.325-5.853l1.712-2.018c.622-.693,1.166-1.243,1.8-1.924.531-.571,1.213-1.533,2.165-1.533h5.718a5.835,5.835,0,0,1,5.555,5.782c0,.993-.26,1.773-.327,2.628h5.718a38.73,38.73,0,0,1,2.287-5.957c-1.72,0-3.168.052-4.308-.636a4.257,4.257,0,0,1-1.9-3.219v-8.761c0-2.418,2.224-3.855,4.574-3.855h19.6c2.35,0,4.574,1.437,4.574,3.855v8.761a4.257,4.257,0,0,1-1.9,3.219c-1.14.687-2.588.636-4.308.636a38.729,38.729,0,0,1,2.287,5.957c4.07,0,10.134-.332,13.754.142a7.7,7.7,0,0,1,6.831,7.392v9.637a1.533,1.533,0,0,1-1.47,1.577c-2.026,0-1.8-1.643-1.8-3.855,0-1.752-.006-3.505,0-5.257.011-3.178-.928-5.957-4.248-5.957H23.2c-.492,0-2.02,1.849-2.287,2.278,2.537,1.44,5.008,3.1,7.57,4.5,1.687.918,6.373,3.4,6.807,5.14.621-.178,1.544-1.65,2.1-2.13,10.05-8.7,24.154.59,21.8,13.571a13.808,13.808,0,0,1-.629,2.3,14.883,14.883,0,0,1-2,3.816,15.343,15.343,0,0,1-2.844,2.907,12.731,12.731,0,0,1-16.285-.869,6.442,6.442,0,0,1-1.4-1.478c-.431-.591-.882-.882-1.074-1.652-1.11.318-1.6,1.88-3.594,1.927,0,3.91-1.943,7.009-5.881,7.009-2.331,0-5.127-2.685-7.188-3.855,0,2.1-.142,3.724.595,5.144a3.99,3.99,0,0,0,3.163,2.215H70.086a3.72,3.72,0,0,0,2.9-1.793c1.315-1.865.86-6.138.855-8.545,0-1.678-.084-3.154,1.471-3.154a1.59,1.59,0,0,1,1.8,1.577v8.06a7.865,7.865,0,0,1-7.515,7.534H35.615a26.976,26.976,0,0,1-5.754,15.73c-.465.575-.653,1.265-1.6,1.265a1.59,1.59,0,0,1-1.8-1.577c0-1.487,1.28-2.5,1.995-3.643l1.763-3.365a25.5,25.5,0,0,0,2.123-8.411c-3.267,0-9.422.4-11.93-.346a6.9,6.9,0,0,1-3.326-2.215c-.134-.154-.178-.212-.31-.368-2.215-2.612-1.751-6.147-1.751-9.51-1.17,0-2.941-.01-2.941-1.752,0-2.391,3.127-1.752,4.738-1.752,1.689,0,6.95,5.081,8.659,5.081,2.716,0,3.322-3.2,1.154-4.567-.63-.4-1.224-.826-1.919-1.271-1.324-.847-2.429-1.607-3.758-2.452-.7-.446-1.209-.815-1.912-1.278-1.433-.945-4.1-.082-5.785-.453-1.847-.407-1.529-3.47-.032-3.47h5.881c1.411,0,9.515,6.658,11.109,6.658a2.226,2.226,0,0,0,2.451-2.1c0-1.615-.7-2.043-1.726-2.7-.844-.544-1.691-1.038-2.523-1.5-1.676-.928-9.582-6.055-10.291-6.054a18.3,18.3,0,0,0-2.668,1.439,10.518,10.518,0,0,1-2.723,1.285c-2.237,0-2.288-2.656-.549-3.568,7.512-3.938,4.135-4.108,10.623-.578,1.561.849,6.3,4.146,7.407,4.146,1.322,0,2.451-.5,2.451-2.278,0-2.037-1.813-2.586-3.213-3.387-1.345-.77-2.525-1.547-3.868-2.335l-5.77-3.448c-2.211-1.2-1.311-1.217-3.922.292-.7.406-1.15.708-1.905,1.11-.793.423-1.262.762-2.012,1.171-6.507,3.542-7.572,3.284-7.572,9.926,1.069,0,1.96.461,1.96,1.577,0,2.5-3.1,1.912-3.1,6.308,0,6.751-.575,13.784,2.012,19.744.31.714.737,1.376,1.081,1.995a17.05,17.05,0,0,0,1.222,1.843c2.68,3.657,2.057,1.674,2.057,9.183,0,1.6-.716,2.443-1.495,2.628ZM41.5,1751.928h9.149c.253,1.164,2.084,5.022,2.287,5.957H39.209C39.412,1756.95,41.243,1753.092,41.5,1751.928ZM11.109,1766.3c0-.938,0-1.874-.008-2.812-.013-1.446.058-1.211.783-1.964l5.231-5.6c3.129-3.318.624-2.761,7.554-2.761,2.347,0,2.951,3.182,1.149,4.386-.933.623-2.077.241-3.436.345-1.86.143-4.059,4.392-6.26,5.551l-5.013,2.859Zm23.852-18.748v-7.709a.652.652,0,0,1,.653-.7H56.526a.652.652,0,0,1,.653.7v7.709a.652.652,0,0,1-.653.7H35.615A.652.652,0,0,1,34.961,1747.547Z" transform="translate(0 -1733.245)" fill-rule="evenodd"/>
    <path id="Path_39" data-name="Path 39" d="M34857.953,34343.871a3.881,3.881,0,0,1,6.6-2.543c3.535,3.512-1.937,8.977-5.461,5.457A4.727,4.727,0,0,1,34857.953,34343.871Zm-3.687-.555v1.293a7.53,7.53,0,0,0,7.008,7.008h1.109a7.53,7.53,0,0,0,7.008-7.008c0-2.582-.352-4.289-2.437-6.227C34861.938,34333.73,34854.266,34337.98,34854.266,34343.316Z" transform="translate(-34815.961 -34295.145)" fill-rule="evenodd"/>
    <path id="Path_40" data-name="Path 40" d="M59006.352,5.707c0,2.448,2.41,1.676,3.34,2.556,1.348,1.271-.2,3.345,2.93,3.345,1.594,0,1.281-2.628,2.246-3.468.863-.752,3.262-.038,3.18-2.407-.086-2.342-2.3-1.453-3.27-2.367-1.316-1.241.016-3.376-2.711-3.376-2.113,0-1.324,2.354-2.375,3.345-.832.789-3.34.251-3.34,2.372Z" transform="translate(-58941.047 0.01)" fill-rule="evenodd"/>
    <path id="Path_41" data-name="Path 41" d="M65369.781,39330.574a1.856,1.856,0,1,0,3.688,0C65373.469,39328.348,65369.781,39328.348,65369.781,39330.574Z" transform="translate(-65296.359 -39281.301)" fill-rule="evenodd"/>
  </g>
</svg>
