<svg id="Katman_x0020_1" xmlns="http://www.w3.org/2000/svg" width="106.799" height="70.087" viewBox="0 0 106.799 70.087">
  <g id="_105553205658432" transform="translate(0 0)">
    <path id="Path_42" data-name="Path 42" d="M2456.83,60.074h-4.8V51.73h6.675V58.2A1.885,1.885,0,0,1,2456.83,60.074Zm-4.8-16.688h1.251a5.185,5.185,0,0,1,5.424,5.006h-6.675Zm-33.375-6.675H2422v3.338h-3.338Zm-26.7-7.927c0-3.35-.515-8.761,5.423-8.761h45.889c5.921,0,5.424,5.493,5.424,8.761,0,1.2-8.5,4.817-9.62,5.191a38.326,38.326,0,0,1-13.743,2.527c0-3.852-.019-3.129-8.343-3.129-1.939,0-1.669,1.857-1.669,3.129a42.425,42.425,0,0,1-21.266-6.06c-.475-.271-2.1-1.033-2.1-1.658Zm11.68-18.147c0-3.7,2.351-3.963,5.006-3.963a3.327,3.327,0,0,0,2.92,3.337h17.522a3.327,3.327,0,0,0,2.92-3.337c5.985,0,5.006,2.821,5.006,10.012h-33.375V10.638Zm8.344-7.3h16.687V6.675h-16.687Zm-3.338,0h-2.086a6.588,6.588,0,0,0-6.258,6.258v7.092h-3.963c-3.848,0-7.718,3.87-7.718,7.718V38.38c0,1.892,3.373,3.027,3.347-.825-.01-1.394-.009-2.787-.009-4.181a16.859,16.859,0,0,1,2.5,1.252c6.428,3.2,13.192,5.423,20.859,5.423,0,4.062-.186,3.337,8.344,3.337,1.983,0,1.668-1.966,1.668-3.337a46.79,46.79,0,0,0,12.909-2.111,44.711,44.711,0,0,0,7.951-3.312,16.845,16.845,0,0,1,2.5-1.252V55.067c0,3.626.489,7.59-1.122,9.725-1.8,2.389-4.9,1.956-8.891,1.956h-37.963c-1.932,0-3.755-.3-3.755,1.669a1.569,1.569,0,0,0,1.669,1.669h45.681c3.38,0,7.438-3.494,7.509-6.675h5.632a4.934,4.934,0,0,0,4.589-4.589V47.767c0-3.849-3.87-7.718-7.718-7.718h-2.294V24.4c0-3.848-3.87-7.718-7.718-7.718h-3.963c0-4.809.775-8.734-1.921-11.429-2.082-2.082-3.8-1.921-6.422-1.921a2.772,2.772,0,0,0-.875-2.254A3.007,3.007,0,0,0,2429.088,0h-17.522a3.328,3.328,0,0,0-2.92,3.338Z" transform="translate(-2355.246 0.001)" fill-rule="evenodd"/>
    <path id="Path_43" data-name="Path 43" d="M3.328,2532.778v-15.227c0-1.008.218-1.592.967-1.953l6.883-2.294c2.246-.748,2.049-1.122,2.62-3.429,1.072-4.327.131-3.588,9.762-3.588,2.253,0,2.155,1.518,2.627,3.421.913,3.676.5,2.871,7.046,5.052,2.243.748,3.468.666,3.468,2.79v15.227a1.885,1.885,0,0,1-1.878,1.878H5.2a1.885,1.885,0,0,1-1.877-1.878Zm6.883-22.736-6.34,2c-2.044.7-3.881,2.25-3.881,4.671V2533.4a4.935,4.935,0,0,0,4.589,4.589H35.45a4.935,4.935,0,0,0,4.589-4.589v-16.687c0-2.338-1.756-3.915-3.726-4.618l-6.5-2.057c-1.954-8.391-2.878-7.092-14.392-7.092-3.936,0-4.632,4.59-5.215,7.092Z" transform="translate(0.01 -2467.907)" fill-rule="evenodd"/>
    <path id="Path_44" data-name="Path 44" d="M3347.427,3466.867h30.037v6.676h-30.037Zm-3.337-1.668v10.013a1.569,1.569,0,0,0,1.668,1.668h33.374a1.569,1.569,0,0,0,1.669-1.668V3465.2a1.568,1.568,0,0,0-1.669-1.669h-33.374A1.568,1.568,0,0,0,3344.09,3465.2Z" transform="translate(-3297.365 -3415.137)" fill-rule="evenodd"/>
    <path id="Path_45" data-name="Path 45" d="M839.367,3352.444c0-4.033,5.2-6.813,8.507-3.5,4.608,4.607-2.395,11.61-7,7a5.839,5.839,0,0,1-1.5-3.5Zm-3.337-.626v1.251c0,3.849,3.87,7.718,7.718,7.718H845c3.849,0,7.718-3.869,7.718-7.718v-1.251c0-3.848-3.869-7.718-7.718-7.718h-1.251C839.9,3344.1,836.03,3347.97,836.03,3351.818Z" transform="translate(-824.349 -3297.375)" fill-rule="evenodd"/>
    <path id="Path_46" data-name="Path 46" d="M3702.36,3823.479a1.569,1.569,0,0,0,1.669,1.669h23.362a1.669,1.669,0,1,0,0-3.338h-23.362a1.569,1.569,0,0,0-1.669,1.669Z" transform="translate(-3650.63 -3768.411)" fill-rule="evenodd"/>
  </g>
</svg>
